<svg width="75" height="34" fill="none" xmlns="http://www.w3.org/2000/svg"><path d="M.2 12.43c0-.34.13-.66.36-.9.24-.23.56-.37.9-.38h7.21c5.11 0 8.48 2.68 8.48 7.06v.06c0 4.8-4.08 7.29-8.9 7.29h-5.5v6.73a1.24 1.24 0 0 1-.33.97 1.29 1.29 0 0 1-.95.4 1.3 1.3 0 0 1-.94-.4 1.26 1.26 0 0 1-.34-.97V12.43zm8.15 10.86c3.75 0 6.2-1.98 6.2-4.94v-.06c0-3.18-2.41-4.83-6.02-4.83H2.8v9.79l5.55.04zM22.02 12.27a1.24 1.24 0 0 1 .33-.97 1.29 1.29 0 0 1 1.47-.3 1.29 1.29 0 0 1 .7.75c.05.17.08.34.06.52v20.02a1.25 1.25 0 0 1-.33.97 1.29 1.29 0 0 1-.95.4 1.3 1.3 0 0 1-.95-.4 1.26 1.26 0 0 1-.33-.97V12.27zM31.2 12.3c0-.33.14-.64.38-.87.23-.23.55-.36.88-.37h.36a1.58 1.58 0 0 1 1.3.73l13.74 17.23V12.24c0-.33.13-.64.37-.87a1.26 1.26 0 0 1 1.76 0c.23.23.36.54.36.87v20.1a1.1 1.1 0 0 1-.33.82 1.15 1.15 0 0 1-.83.34h-.13a1.74 1.74 0 0 1-1.33-.77L33.67 15.09v17.24c0 .32-.13.62-.35.85-.23.23-.53.37-.86.38a1.21 1.21 0 0 1-1.23-1.23V12.3h-.03zM56.74 12.27a1.24 1.24 0 0 1 .33-.97 1.29 1.29 0 0 1 1.47-.3 1.29 1.29 0 0 1 .7.75c.06.17.08.34.06.52v12.17l12.9-13a1.5 1.5 0 0 1 1-.45c.33.02.64.15.87.38.23.23.36.54.37.87a1.26 1.26 0 0 1-.42.89l-8.04 7.82 8.67 10.42c.23.26.35.6.35.93a1.27 1.27 0 0 1-.41.91 1.32 1.32 0 0 1-1.52.2 1.2 1.2 0 0 1-.43-.42l-8.45-10.36-4.89 4.8v4.84a1.24 1.24 0 0 1-.37.89 1.28 1.28 0 0 1-1.4.27 1.28 1.28 0 0 1-.68-.68c-.07-.15-.1-.31-.1-.48v-20h-.01z" fill="#283645"/><path d="M26.94 3.75c-.97 0-1.9-.38-2.57-1.05A3.55 3.55 0 0 1 23.29.17c0 .95-.38 1.86-1.06 2.53a3.67 3.67 0 0 1-2.57 1.05c.96 0 1.89.38 2.57 1.05a3.55 3.55 0 0 1 1.06 2.53c0-.95.4-1.86 1.07-2.53a3.69 3.69 0 0 1 2.58-1.05z" fill="#D22856"/></svg>