<svg width="146" height="40" viewBox="0 0 146 40" fill="none" xmlns="http://www.w3.org/2000/svg">
<path fill-rule="evenodd" clip-rule="evenodd" d="M54.3917 6.58616L59.4302 27.7312C59.5013 27.9491 59.5184 28.1815 59.48 28.4078C59.4417 28.6341 59.349 28.8472 59.2102 29.0284C59.0715 29.2096 58.8909 29.3532 58.6845 29.4465C58.478 29.5398 58.2522 29.58 58.0268 29.5635H54.0201C53.3298 35.3747 48.4494 39.8784 42.5315 39.8784C36.6136 39.8784 31.7332 35.3747 31.043 29.5635H29.0778C28.3869 35.442 23.4527 40 17.4685 40C11.4742 40 6.5335 35.4266 5.85571 29.5337H1.95014C1.72961 29.5445 1.50974 29.5014 1.30891 29.4082C1.10808 29.315 0.932119 29.1743 0.795711 28.9979C0.659304 28.8214 0.566415 28.6144 0.524802 28.3941C0.483189 28.1737 0.49406 27.9464 0.556507 27.7312L5.60477 6.58616C5.95562 4.25872 8.13865 0 13.9861 0C14.3738 0 14.7456 0.156518 15.0197 0.435122C15.2939 0.713727 15.4479 1.0916 15.4479 1.4856C15.4479 1.87961 15.2939 2.25748 15.0197 2.53608C14.7456 2.81468 14.3738 2.9712 13.9861 2.9712C9.2789 2.9712 8.54797 6.6654 8.4895 7.07146L3.8408 26.6022H5.87467C6.62089 20.7847 11.5272 16.2918 17.4685 16.2918C23.4066 16.2918 28.3107 20.7798 29.0611 26.5926L31.0587 26.6017C31.8043 20.8518 36.6567 16.4134 42.5315 16.4134C48.4178 16.4134 53.2776 20.8691 54.0086 26.6353V26.5824H56.1459L51.507 7.07146C51.4387 6.6654 50.737 2.9712 46.0104 2.9712C45.6227 2.9712 45.2509 2.81468 44.9767 2.53608C44.7026 2.25748 44.5485 1.87961 44.5485 1.4856C44.5485 1.0916 44.7026 0.713727 44.9767 0.435122C45.2509 0.156518 45.6227 0 46.0104 0C51.8578 0 54.0408 4.25872 54.3917 6.58616ZM26.1722 29.5635C26.2448 29.1018 26.2825 28.6283 26.2825 28.1459C26.2825 27.6164 26.2371 27.0977 26.15 26.5935C25.4252 22.3982 21.8141 19.2097 17.4685 19.2097C13.1203 19.2097 9.50753 22.402 8.78571 26.601C8.69945 27.1028 8.65447 27.619 8.65447 28.1459C8.65447 28.6205 8.69096 29.0864 8.76125 29.541C9.42191 33.8136 13.0687 37.0821 17.4685 37.0821C21.8605 37.0821 25.5023 33.8251 26.1722 29.5635ZM51.1138 29.5635C51.1874 29.102 51.2256 28.6285 51.2256 28.1459C51.2256 23.2777 47.3331 19.3313 42.5315 19.3313C37.7299 19.3313 33.8374 23.2777 33.8374 28.1459C33.8374 28.6285 33.8756 29.102 33.9492 29.5635C34.618 33.7577 38.2058 36.9605 42.5315 36.9605C46.8572 36.9605 50.445 33.7577 51.1138 29.5635Z" fill="white"/>
<path d="M71.505 18.5486C71.5049 18.2125 71.6358 17.8898 71.8697 17.6494C72.1037 17.409 72.4221 17.2701 72.7568 17.2623H79.89C84.9469 17.2623 88.2751 19.9645 88.2751 24.3918V24.4516C88.2751 29.2977 84.2415 31.8105 79.4727 31.8105H74.0384V38.611C74.0539 38.7874 74.0328 38.9651 73.9762 39.1329C73.9196 39.3006 73.8289 39.4547 73.7097 39.5854C73.5906 39.716 73.4457 39.8204 73.2842 39.8918C73.1227 39.9631 72.9481 40 72.7717 40C72.5952 40 72.4207 39.9631 72.2592 39.8918C72.0977 39.8204 71.9527 39.716 71.8336 39.5854C71.7145 39.4547 71.6237 39.3006 71.5671 39.1329C71.5106 38.9651 71.4894 38.7874 71.505 38.611V18.5486ZM79.5721 29.5171C83.2778 29.5171 85.7119 27.5228 85.7119 24.5314V24.4716C85.7119 21.2608 83.3175 19.5956 79.7509 19.5956H74.088V29.4772L79.5721 29.5171Z" fill="white"/>
<path d="M93.0935 18.389C93.0779 18.2126 93.0991 18.0349 93.1556 17.8671C93.2122 17.6994 93.303 17.5452 93.4221 17.4146C93.5412 17.2839 93.6862 17.1796 93.8477 17.1082C94.0092 17.0369 94.1837 17 94.3602 17C94.5366 17 94.7112 17.0369 94.8727 17.1082C95.0342 17.1796 95.1791 17.2839 95.2982 17.4146C95.4174 17.5452 95.5081 17.6994 95.5647 17.8671C95.6213 18.0349 95.6424 18.2126 95.6269 18.389V38.611C95.6424 38.7874 95.6213 38.9651 95.5647 39.1329C95.5081 39.3006 95.4174 39.4548 95.2982 39.5854C95.1791 39.7161 95.0342 39.8204 94.8727 39.8918C94.7112 39.9631 94.5366 40 94.3602 40C94.1837 40 94.0092 39.9631 93.8477 39.8918C93.6862 39.8204 93.5412 39.7161 93.4221 39.5854C93.303 39.4548 93.2122 39.3006 93.1556 39.1329C93.0991 38.9651 93.0779 38.7874 93.0935 38.611V18.389Z" fill="white"/>
<path d="M102.174 18.419C102.182 18.0891 102.316 17.775 102.55 17.5426C102.783 17.3102 103.097 17.1776 103.426 17.1725H103.773C104.032 17.1778 104.284 17.2482 104.508 17.3771C104.732 17.5061 104.92 17.6894 105.055 17.9104L118.656 35.3104V18.3591C118.656 18.0312 118.786 17.7167 119.017 17.4848C119.248 17.2529 119.561 17.1227 119.888 17.1227C120.215 17.1227 120.528 17.2529 120.759 17.4848C120.99 17.7167 121.12 18.0312 121.12 18.3591V38.6508C121.125 38.8051 121.099 38.9589 121.044 39.1028C120.988 39.2467 120.903 39.3777 120.796 39.4878C120.688 39.5979 120.559 39.6848 120.416 39.7432C120.274 39.8016 120.121 39.8303 119.967 39.8275H119.838C119.574 39.8092 119.318 39.7294 119.091 39.5944C118.863 39.4594 118.67 39.2728 118.527 39.0497L104.618 21.2408V38.6508C104.616 38.9722 104.491 39.2805 104.269 39.5124C104.047 39.7442 103.746 39.882 103.426 39.8973C103.101 39.892 102.791 39.7581 102.564 39.5246C102.337 39.2911 102.211 38.9771 102.214 38.6508V18.419H102.174Z" fill="white"/>
<path d="M127.438 18.389C127.423 18.2126 127.444 18.0349 127.501 17.8671C127.557 17.6994 127.648 17.5452 127.767 17.4146C127.886 17.2839 128.031 17.1796 128.193 17.1082C128.354 17.0369 128.529 17 128.705 17C128.882 17 129.056 17.0369 129.218 17.1082C129.379 17.1796 129.524 17.2839 129.643 17.4146C129.762 17.5452 129.853 17.6994 129.91 17.8671C129.966 18.0349 129.987 18.2126 129.972 18.389V30.6837L142.728 17.5514C142.99 17.2797 143.345 17.1191 143.722 17.1027C144.047 17.1155 144.355 17.2528 144.582 17.4865C144.809 17.7202 144.939 18.0325 144.944 18.3591C144.937 18.529 144.896 18.6957 144.825 18.8498C144.753 19.0038 144.652 19.1421 144.526 19.2565L136.578 27.1539L145.152 37.6836C145.376 37.9441 145.5 38.2768 145.5 38.6209C145.496 38.7933 145.458 38.9633 145.389 39.121C145.319 39.2786 145.219 39.4209 145.094 39.5395C144.97 39.6582 144.823 39.7509 144.662 39.8123C144.502 39.8737 144.331 39.9026 144.159 39.8973C143.959 39.8891 143.764 39.8322 143.591 39.7314C143.418 39.6306 143.272 39.4891 143.165 39.3189L134.8 28.859L129.972 33.7051V38.591C129.972 38.7573 129.939 38.922 129.876 39.0756C129.812 39.2293 129.719 39.3689 129.602 39.4865C129.485 39.6041 129.346 39.6973 129.193 39.761C129.04 39.8246 128.876 39.8574 128.71 39.8574C128.544 39.8574 128.38 39.8246 128.227 39.761C128.074 39.6973 127.935 39.6041 127.818 39.4865C127.701 39.3689 127.608 39.2293 127.544 39.0756C127.481 38.922 127.448 38.7573 127.448 38.591V18.389H127.438Z" fill="white"/>
</svg>
